<svg width="400" height="300" viewBox="0 0 400 300" fill="none" xmlns="http://www.w3.org/2000/svg">
  <rect width="400" height="300" fill="white"/>
  
  <!-- Monitor/Screen -->
  <rect x="120" y="30" width="160" height="120" rx="5" stroke="#0D6EFD" stroke-width="8" fill="#E6F0FF"/>
  <rect x="150" y="70" width="100" height="10" rx="5" fill="#0D6EFD" opacity="0.6"/>
  <rect x="150" y="90" width="100" height="10" rx="5" fill="#0D6EFD" opacity="0.6"/>
  <rect x="170" y="110" width="60" height="10" rx="5" fill="#0D6EFD" opacity="0.6"/>
  
  <!-- Cloud icon -->
  <circle cx="200" y="70" r="15" fill="#0D6EFD" opacity="0.5"/>
  <path d="M185 70 Q190 60 200 60 Q210 60 215 70 Q225 68 225 78 Q225 88 215 88 L185 88 Q175 88 175 78 Q175 68 185 70" fill="#0D6EFD"/>
  
  <!-- Person -->
  <path d="M250 150 L270 280 L230 280 L250 150 Z" fill="#0D6EFD" opacity="0.3"/>
  <rect x="230" y="140" width="40" height="40" rx="20" fill="#0D6EFD"/>
  <path d="M180 200 L220 170 L230 200 L190 230 Z" fill="#0D6EFD" opacity="0.5"/>
  <rect x="240" y="170" width="60" height="15" rx="7.5" fill="#0D6EFD"/>
  
  <!-- Desktop stand -->
  <path d="M180 150 L220 150 L200 180 Z" fill="#0D6EFD" opacity="0.7"/>
  <rect x="190" y="180" width="20" height="20" rx="3" fill="#0D6EFD" opacity="0.7"/>
  <rect x="170" y="200" width="60" height="10" rx="5" fill="#0D6EFD" opacity="0.7"/>
</svg>
